# xmcd
#
# Track frame offsets: 
#        150
#        17807
#        35844
#        54026
#        67391
#        84145
#        105028
#        121346
#        138064
#        152593
#        169091
#        189499
#        202645
#
# Disc length: 2922 seconds
#
# Revision: 0
# Processed by: cddbd v1.5.2PL0 Copyright (c) Steve Scherf et al.
# Submitted via: ExactAudioCopyFreeDBPlugin 1.0
#
DISCID=970b680d
DTITLE=Straalen McCallum - A Little Faith
DYEAR=2010
DGENRE=Easy Listening
TTITLE0=Smile
TTITLE1=Angel
TTITLE2=Sometimes A Prayer Will Do
TTITLE3=Panis Angelicus
TTITLE4=How Great Thou Art
TTITLE5=Wiyathul
TTITLE6=Hallelujah
TTITLE7=Father
TTITLE8=You Are The Sunshine Of My Life
TTITLE9=Tears In Heaven
TTITLE10=I Believe I Can Fly
TTITLE11=Let It Be Me
TTITLE12=Over The Rainbow
EXTD=
EXTT0=
EXTT1=
EXTT2=
EXTT3=
EXTT4=
EXTT5=
EXTT6=
EXTT7=
EXTT8=
EXTT9=
EXTT10=
EXTT11=
EXTT12=
PLAYORDER=
